<svg width="209" height="37" viewBox="0 0 209 37" fill="none" xmlns="http://www.w3.org/2000/svg">
<path d="M36.7535 0.438965C36.7535 3.74999 35.4093 6.74929 33.2361 8.92294C31.1121 11.046 28.1882 12.3856 24.9564 12.4362H0.639771L12.6943 0.438965H36.7535Z" fill="white"/>
<path d="M36.7893 24.3492L24.6417 36.4391H1.18319V36.4138L1.17603 36.4096V36.3675C1.17603 35.9505 1.26912 33.0354 3.02068 30.2383C3.91415 28.8145 5.21539 27.4201 7.17462 26.3417C8.96914 25.356 12.7532 24.4377 15.8688 24.4545L15.7761 28.4353L20.4802 23.9406L15.9834 19.2353L15.9691 19.8798L15.8903 23.2624C14.9088 23.2287 13.3982 23.2455 11.679 23.5825L1.70511 13.6453H26.0361L36.7893 24.3492Z" fill="white"/>
<path d="M61.2611 15.8955H64.3267C67.3205 15.8955 69.53 16.523 70.9547 17.7723C72.3788 19.0216 73.0914 20.7863 73.0914 23.0664C73.0914 25.3465 72.348 27.0944 70.8617 28.2989C69.3749 29.509 67.1967 30.114 64.3267 30.114H53.1777C52.7026 30.114 52.4757 29.8731 52.4964 29.4025V25.7443C52.4964 25.2737 52.7233 25.0328 53.1777 25.0328H64.3267C66.1642 25.0328 67.083 24.383 67.083 23.0833C67.083 21.6771 66.1642 20.9768 64.3267 20.9768H61.2611C58.2667 20.9768 56.0578 20.355 54.6331 19.1001C53.2085 17.8508 52.4964 16.086 52.4964 13.8059C52.4964 11.5258 53.2393 9.78352 54.7261 8.57343C56.2129 7.36335 58.3905 6.76392 61.2611 6.76392H71.7597C72.2343 6.76392 72.4718 6.99922 72.4718 7.47541V11.1617C72.4718 11.6323 72.2343 11.8619 71.7597 11.8395H61.2611C59.423 11.8395 58.5043 12.5006 58.5043 13.8227C58.5043 15.2065 59.423 15.8955 61.2611 15.8955Z" fill="white"/>
<path d="M92.6644 6.76392H97C97.4751 6.76392 97.7014 6.99922 97.6818 7.47541V29.4025C97.6818 29.8731 97.4544 30.114 97 30.114H92.6644C92.1888 30.114 91.9619 29.8731 91.9832 29.4025V20.9768H83.0947V29.4025C83.0947 29.8731 82.8672 30.114 82.4135 30.114H78.0773C77.6022 30.114 77.3753 29.8731 77.3966 29.4025V7.47541C77.3966 6.99922 77.6235 6.76392 78.0773 6.76392H82.4135C82.888 6.76392 83.1148 6.99922 83.0947 7.47541V15.8955H91.9832V7.47541C91.9619 6.99922 92.1888 6.76392 92.6644 6.76392Z" fill="white"/>
<path d="M103.101 6.76392H107.437C107.912 6.76392 108.138 6.99922 108.118 7.47541V29.4025C108.118 29.8731 107.891 30.114 107.437 30.114H103.101C102.626 30.114 102.399 29.8731 102.42 29.4025V7.47541C102.399 6.99922 102.626 6.76392 103.101 6.76392Z" fill="white"/>
<path d="M118.555 11.8395V18.1252H125.616C127.247 18.1252 128.063 17.0776 128.063 14.9824C128.063 12.8871 127.247 11.8395 125.616 11.8395H118.555ZM133.792 15.2009C133.792 17.3801 133.1 19.2569 131.717 20.8368C130.334 22.4166 128.3 23.2065 125.616 23.2065H118.555V29.4025C118.555 29.8731 118.328 30.114 117.873 30.114H113.538C113.063 30.114 112.836 29.8731 112.857 29.4025V7.47541C112.857 6.99922 113.084 6.76392 113.538 6.76392H125.616C128.217 6.76392 130.231 7.62105 131.656 9.34654C133.08 11.072 133.792 13.0216 133.792 15.2009Z" fill="white"/>
<path d="M143.548 11.8395V18.1252H150.609C152.24 18.1252 153.056 17.0776 153.056 14.9824C153.056 12.8871 152.24 11.8395 150.609 11.8395H143.548ZM158.784 15.2009C158.784 17.3801 158.093 19.2569 156.709 20.8368C155.327 22.4166 153.293 23.2065 150.609 23.2065H143.548V29.4025C143.548 29.8731 143.32 30.114 142.866 30.114H138.531C138.056 30.114 137.829 29.8731 137.849 29.4025V7.47541C137.849 6.99922 138.077 6.76392 138.531 6.76392H150.609C153.21 6.76392 155.224 7.62105 156.648 9.34654C158.072 11.072 158.784 13.0216 158.784 15.2009Z" fill="white"/>
<path d="M168.541 20.9768V25.0328H182.043C182.518 25.0328 182.756 25.2737 182.756 25.7443V29.4025C182.756 29.8731 182.518 30.114 182.043 30.114H163.523C163.048 30.114 162.821 29.8731 162.842 29.4025V7.47541C162.842 6.99922 163.069 6.76392 163.523 6.76392H181.733C182.208 6.76392 182.446 6.99922 182.446 7.47541V11.1617C182.446 11.6323 182.208 11.8619 181.733 11.8395H168.541V15.8955H180.773C181.248 15.8955 181.486 16.1364 181.486 16.6126V20.2934C181.486 20.7695 181.248 20.9992 180.773 20.9768H168.541Z" fill="white"/>
<path d="M203.196 18.3437C203.98 18.5734 204.672 18.8815 205.271 19.2737C207.253 20.4502 208.254 23.5762 208.275 28.6575V29.4025C208.254 29.8731 208.016 30.114 207.563 30.114H203.258C202.783 30.0916 202.546 29.8563 202.546 29.4025V28.6575C202.546 25.3521 202.039 23.2457 201.028 22.3381C200.161 21.5538 198.984 21.1112 197.497 21.0104C195.991 21.1112 194.803 21.5538 193.936 22.3381C192.924 23.2457 192.419 25.3521 192.419 28.6575V29.4025C192.419 29.8563 192.181 30.0916 191.706 30.114H187.401C186.947 30.114 186.709 29.8731 186.689 29.4025V28.6575C186.689 23.5762 187.69 20.4502 189.693 19.2737C190.313 18.904 191.003 18.5902 191.768 18.3437C188.815 16.7135 187.339 13.3353 187.339 8.21488V7.47541C187.339 6.99922 187.566 6.76392 188.021 6.76392H192.356C192.831 6.76392 193.058 6.99922 193.038 7.47541V8.21488C193.038 11.7275 193.368 13.8564 194.029 14.6127C194.689 15.3634 195.846 15.7835 197.497 15.8676C199.149 15.7835 200.3 15.3634 200.951 14.6127C201.601 13.8564 201.926 11.7275 201.926 8.21488V7.47541C201.926 6.99922 202.154 6.76392 202.607 6.76392H206.943C207.418 6.76392 207.644 6.99922 207.624 7.47541V8.21488C207.624 13.3353 206.148 16.7135 203.196 18.3437Z" fill="white"/>
</svg>
